<svg width="14" height="11" viewBox="0 0 14 11" fill="none" xmlns="http://www.w3.org/2000/svg">
<g id="Group">
<path id="Vector" d="M13.5312 1.3048C13.0336 1.5253 12.499 1.67428 11.9371 1.74162C12.5169 1.39466 12.9507 0.848596 13.1575 0.205309C12.6128 0.528893 12.0165 0.756661 11.3948 0.878711C10.9767 0.432278 10.4229 0.136375 9.81934 0.0369432C9.21582 -0.0624891 8.59636 0.040112 8.05712 0.328817C7.51789 0.617523 7.08906 1.07618 6.8372 1.63358C6.58535 2.19098 6.52457 2.81593 6.66429 3.41142C5.56044 3.35599 4.48058 3.06908 3.49479 2.56931C2.509 2.06954 1.63931 1.36807 0.942166 0.510426C0.703794 0.921618 0.56673 1.39836 0.56673 1.9061C0.566464 2.36317 0.679023 2.81325 0.894419 3.21639C1.10982 3.61953 1.42139 3.96327 1.8015 4.21711C1.36067 4.20309 0.929576 4.08397 0.544085 3.86969V3.90544C0.54404 4.54651 0.76579 5.16785 1.17171 5.66403C1.57763 6.16021 2.14271 6.50068 2.77108 6.62765C2.36214 6.73833 1.9334 6.75463 1.51724 6.67533C1.69453 7.22693 2.03987 7.70928 2.50491 8.05486C2.96996 8.40044 3.53143 8.59195 4.11073 8.60257C3.12734 9.37454 1.91287 9.79329 0.662675 9.79145C0.441216 9.79151 0.219944 9.77857 0 9.75271C1.26902 10.5686 2.74625 11.0017 4.25494 11C9.36207 11 12.154 6.77008 12.154 3.10153C12.154 2.98235 12.151 2.86197 12.1457 2.74278C12.6887 2.35005 13.1575 1.86372 13.53 1.30659L13.5312 1.3048Z" fill="white"/>
</g>
</svg>
