<svg width="12" height="17" viewBox="0 0 12 17" fill="none" xmlns="http://www.w3.org/2000/svg">
<g id="Group">
<path id="Vector" d="M9.1875 1.0625C9.46929 1.0625 9.73954 1.17444 9.9388 1.3737C10.1381 1.57296 10.25 1.84321 10.25 2.125V14.875C10.25 15.1568 10.1381 15.427 9.9388 15.6263C9.73954 15.8256 9.46929 15.9375 9.1875 15.9375H2.8125C2.53071 15.9375 2.26046 15.8256 2.0612 15.6263C1.86194 15.427 1.75 15.1568 1.75 14.875V2.125C1.75 1.84321 1.86194 1.57296 2.0612 1.3737C2.26046 1.17444 2.53071 1.0625 2.8125 1.0625H9.1875ZM2.8125 0C2.24891 0 1.70841 0.223883 1.3099 0.622398C0.911383 1.02091 0.6875 1.56141 0.6875 2.125V14.875C0.6875 15.4386 0.911383 15.9791 1.3099 16.3776C1.70841 16.7761 2.24891 17 2.8125 17H9.1875C9.75109 17 10.2916 16.7761 10.6901 16.3776C11.0886 15.9791 11.3125 15.4386 11.3125 14.875V2.125C11.3125 1.56141 11.0886 1.02091 10.6901 0.622398C10.2916 0.223883 9.75109 0 9.1875 0L2.8125 0Z" fill="#786F6F"/>
<path id="Vector_2" d="M6 14.875C6.28179 14.875 6.55204 14.7631 6.7513 14.5638C6.95056 14.3645 7.0625 14.0943 7.0625 13.8125C7.0625 13.5307 6.95056 13.2605 6.7513 13.0612C6.55204 12.8619 6.28179 12.75 6 12.75C5.71821 12.75 5.44796 12.8619 5.2487 13.0612C5.04944 13.2605 4.9375 13.5307 4.9375 13.8125C4.9375 14.0943 5.04944 14.3645 5.2487 14.5638C5.44796 14.7631 5.71821 14.875 6 14.875Z" fill="#786F6F"/>
</g>
</svg>
