<svg width="37" height="25" viewBox="0 0 37 25" fill="none" xmlns="http://www.w3.org/2000/svg">
<g id="Group" filter="url(#filter0_f_3_3)">
<path id="Vector" fill-rule="evenodd" clip-rule="evenodd" d="M35.8929 12.5933C35.8929 12.9238 35.7617 13.2407 35.528 13.4744C35.2943 13.7081 34.9773 13.8394 34.6468 13.8394L5.25644 13.8394L13.0994 21.6798C13.3334 21.9138 13.4648 22.2312 13.4648 22.5621C13.4648 22.893 13.3334 23.2103 13.0994 23.4443C12.8654 23.6783 12.548 23.8097 12.2171 23.8097C11.8862 23.8097 11.5689 23.6783 11.3349 23.4443L1.36613 13.4755C1.25009 13.3598 1.15802 13.2223 1.0952 13.0709C1.03238 12.9195 1.00005 12.7572 1.00005 12.5933C1.00005 12.4294 1.03238 12.2671 1.0952 12.1157C1.15802 11.9643 1.25009 11.8268 1.36613 11.7111L11.3349 1.7423C11.5689 1.50831 11.8862 1.37686 12.2171 1.37686C12.548 1.37686 12.8654 1.50831 13.0994 1.7423C13.3334 1.97628 13.4648 2.29363 13.4648 2.62453C13.4648 2.95543 13.3334 3.27278 13.0994 3.50677L5.25644 11.3472L34.6468 11.3472C34.9773 11.3472 35.2943 11.4785 35.528 11.7122C35.7617 11.9459 35.8929 12.2628 35.8929 12.5933Z" fill="white"/>
<path id="Vector_2" fill-rule="evenodd" clip-rule="evenodd" d="M35.8468 18.6136C35.8128 18.9423 35.6496 19.2441 35.3931 19.4525C35.1366 19.6609 34.8079 19.7589 34.4791 19.7249L5.2445 16.7031C4.9877 16.9118 5.05847 16.6823 4.72932 16.6482L1.41222 15.9412C1.30869 15.8141 1.23125 15.6678 1.18433 15.5108C1.1374 15.3537 1.12193 15.189 1.13878 15.026C1.15563 14.8629 1.20448 14.7048 1.28254 14.5607C1.36059 14.4166 1.46631 14.2892 1.59364 14.186L12.5345 5.29507C12.7913 5.08638 13.1205 4.98826 13.4497 5.02228C13.7788 5.0563 14.081 5.21969 14.2897 5.47649C14.4983 5.73329 14.5965 6.06247 14.5624 6.39162C14.5284 6.72077 14.365 7.02292 14.1082 7.23161L5.50074 14.2241L34.7354 17.2459C35.0641 17.2799 35.3659 17.4431 35.5743 17.6996C35.7827 17.9561 35.8807 18.2848 35.8468 18.6136Z" fill="white"/>
</g>
<defs>
<filter id="filter0_f_3_3" x="0" y="0.376862" width="36.8929" height="24.4329" filterUnits="userSpaceOnUse" color-interpolation-filters="sRGB">
<feFlood flood-opacity="0" result="BackgroundImageFix"/>
<feBlend mode="normal" in="SourceGraphic" in2="BackgroundImageFix" result="shape"/>
<feGaussianBlur stdDeviation="0.5" result="effect1_foregroundBlur_3_3"/>
</filter>
</defs>
</svg>
